<svg width="279" height="279" viewBox="0 0 279 279" fill="none" xmlns="http://www.w3.org/2000/svg">
<mask id="mask0_386_5959" style="mask-type:alpha" maskUnits="userSpaceOnUse" x="16" y="16" width="246" height="246">
<path d="M139 16C71.35 16 16 71.35 16 139C16 206.65 71.35 262 139 262C206.65 262 262 206.65 262 139C262 71.35 206.65 16 139 16ZM218.95 97.4875C225.1 97.4875 229.713 102.1 235.863 102.1C231.25 108.25 211.262 108.25 205.113 100.562C209.725 99.025 212.8 97.4875 218.95 97.4875ZM31.375 139C31.375 132.85 31.375 126.7 32.9125 119.012C34.45 119.012 35.9875 120.55 37.525 120.55C37.525 120.55 39.0625 122.088 39.0625 123.625C39.0625 128.238 43.675 131.312 46.75 131.312C59.05 132.85 63.6625 143.613 74.425 146.688C77.5 148.225 75.9625 151.3 74.425 154.375C65.2 166.675 72.8875 175.9 80.575 183.587C88.2625 189.737 88.2625 195.887 89.8 205.113C89.8 215.875 91.3375 228.175 95.95 238.938C57.5125 220.488 31.375 183.587 31.375 139ZM139 246.625C128.238 246.625 115.938 245.087 106.713 242.012C105.175 238.938 105.175 235.863 106.713 232.788C112.863 220.488 119.012 209.725 126.7 198.962C129.775 195.887 132.85 192.812 132.85 188.2C132.85 185.125 134.388 180.512 135.925 177.438C140.538 169.75 139 165.138 132.85 163.6C120.55 160.525 114.4 149.762 105.175 145.15C95.95 140.537 86.725 137.462 79.0375 142.075C75.9625 143.612 71.35 145.15 71.35 140.538C71.35 134.388 63.6625 129.775 65.2 123.625C63.6625 123.625 62.125 123.625 60.5875 125.162C59.05 126.7 57.5125 128.237 54.4375 126.7C51.3625 123.625 52.9 120.55 52.9 117.475C54.4375 114.4 55.975 112.862 59.05 111.325C65.2 109.787 71.35 109.787 74.425 117.475C79.0375 103.637 88.2625 95.95 97.4875 89.8C97.4875 89.8 109.787 79.0375 111.325 79.0375C112.862 79.0375 114.4 82.1125 117.475 83.65C120.55 83.65 122.088 83.65 122.088 80.575C123.625 72.8875 119.013 63.6625 112.863 62.125C112.863 60.5875 114.4 60.5875 114.4 60.5875C119.013 59.05 125.162 55.975 123.625 51.3625C123.625 45.2125 117.475 42.1375 111.325 42.1375C108.25 42.1375 105.175 42.1375 102.1 43.675C95.95 46.75 88.2625 49.825 79.0375 49.825C95.95 37.525 117.475 31.375 139 31.375H151.3C142.075 32.9125 132.85 35.9875 126.7 39.0625C135.925 40.6 137.462 45.2125 134.387 52.9C132.85 55.975 134.388 59.05 137.463 60.5875C140.537 62.125 143.612 62.125 145.15 59.05C148.225 54.4375 154.375 52.9 158.988 51.3625C165.137 49.825 169.75 46.75 174.363 40.6C174.363 39.0625 175.9 39.0625 177.438 37.525C186.663 40.6 195.887 46.75 205.113 52.9C203.575 52.9 203.575 54.4375 202.038 54.4375C198.963 57.5125 194.35 59.05 198.962 65.2C200.5 68.275 198.963 69.8125 197.425 71.35C194.35 72.8875 192.812 71.35 191.275 69.8125C189.737 68.275 189.738 65.2 185.125 65.2C183.587 68.275 178.975 69.8125 178.975 74.425C186.663 74.425 185.125 80.575 186.663 85.1875C177.438 86.725 174.363 91.3375 178.975 99.025C180.513 102.1 177.438 103.638 175.9 105.175C169.75 114.4 163.6 120.55 163.6 131.312C163.6 142.075 171.287 152.838 183.587 151.3C197.425 149.762 197.425 149.762 202.038 162.062C202.038 163.6 203.575 165.137 203.575 166.675C205.113 169.75 206.65 172.825 205.113 175.9C200.5 188.2 206.65 197.425 211.262 206.65C212.8 209.725 214.337 211.262 215.875 212.8C195.887 234.325 169.75 246.625 139 246.625Z" fill="black"/>
</mask>
<g mask="url(#mask0_386_5959)">
<rect x="-260" width="798" height="549" fill="#1B8231"/>
<path d="M143 61L478 273L143 485L-192 273L143 61Z" fill="#F0B819"/>
<ellipse cx="144" cy="273" rx="137" ry="138" fill="#1E0B5C"/>
</g>
</svg>
