<svg width="16" height="16" viewBox="0 0 16 16" fill="none" xmlns="http://www.w3.org/2000/svg">
<path d="M8.00002 8.66668C7.79705 8.6643 7.59823 8.72417 7.43032 8.83821C7.2624 8.95225 7.13345 9.115 7.06083 9.30455C6.98821 9.49409 6.9754 9.70134 7.02412 9.89838C7.07284 10.0954 7.18076 10.2728 7.33335 10.4067V11.3333C7.33335 11.5102 7.40359 11.6797 7.52862 11.8047C7.65364 11.9298 7.82321 12 8.00002 12C8.17683 12 8.3464 11.9298 8.47143 11.8047C8.59645 11.6797 8.66669 11.5102 8.66669 11.3333V10.4067C8.81928 10.2728 8.9272 10.0954 8.97592 9.89838C9.02465 9.70134 9.01183 9.49409 8.93921 9.30455C8.86659 9.115 8.73764 8.95225 8.56973 8.83821C8.40181 8.72417 8.20299 8.6643 8.00002 8.66668ZM11.3334 6.00001V4.66668C11.3334 3.78262 10.9822 2.93478 10.357 2.30965C9.73192 1.68453 8.88408 1.33334 8.00002 1.33334C7.11597 1.33334 6.26812 1.68453 5.643 2.30965C5.01788 2.93478 4.66669 3.78262 4.66669 4.66668V6.00001C4.13625 6.00001 3.62755 6.21072 3.25247 6.5858C2.8774 6.96087 2.66669 7.46958 2.66669 8.00001V12.6667C2.66669 13.1971 2.8774 13.7058 3.25247 14.0809C3.62755 14.456 4.13625 14.6667 4.66669 14.6667H11.3334C11.8638 14.6667 12.3725 14.456 12.7476 14.0809C13.1226 13.7058 13.3334 13.1971 13.3334 12.6667V8.00001C13.3334 7.46958 13.1226 6.96087 12.7476 6.5858C12.3725 6.21072 11.8638 6.00001 11.3334 6.00001ZM6.00002 4.66668C6.00002 4.13624 6.21073 3.62754 6.58581 3.25246C6.96088 2.87739 7.46959 2.66668 8.00002 2.66668C8.53045 2.66668 9.03916 2.87739 9.41423 3.25246C9.78931 3.62754 10 4.13624 10 4.66668V6.00001H6.00002V4.66668ZM12 12.6667C12 12.8435 11.9298 13.0131 11.8048 13.1381C11.6797 13.2631 11.5102 13.3333 11.3334 13.3333H4.66669C4.48988 13.3333 4.32031 13.2631 4.19528 13.1381C4.07026 13.0131 4.00002 12.8435 4.00002 12.6667V8.00001C4.00002 7.8232 4.07026 7.65363 4.19528 7.52861C4.32031 7.40358 4.48988 7.33334 4.66669 7.33334H11.3334C11.5102 7.33334 11.6797 7.40358 11.8048 7.52861C11.9298 7.65363 12 7.8232 12 8.00001V12.6667Z" fill="white"/>
</svg>
