<svg width="30" height="27" viewBox="0 0 30 27" fill="none" xmlns="http://www.w3.org/2000/svg">
<path d="M25.7 18.96H8L7.52 16.46H25.78C26.3556 16.4616 26.9139 16.2629 27.359 15.898C27.8042 15.5331 28.1086 15.0247 28.22 14.46L29.9 6.45999C29.9774 6.09614 29.9726 5.7196 29.886 5.35783C29.7993 4.99607 29.6331 4.65819 29.3993 4.36884C29.1655 4.07949 28.8701 3.84596 28.5346 3.68527C28.1991 3.52458 27.832 3.44078 27.46 3.43999H5L4.56 0.959991H0V3.45999H2.5L5.5 19.14C4.62869 19.3459 3.85164 19.8381 3.29323 20.538C2.73482 21.2378 2.42734 22.1047 2.42 23C2.46683 24.1018 2.94715 25.1404 3.7563 25.8896C4.56546 26.6388 5.6379 27.0379 6.74 27C7.83331 27.0271 8.89332 26.6225 9.69059 25.8739C10.4879 25.1253 10.9583 24.0928 11 23C10.9963 22.4705 10.8875 21.9471 10.68 21.46H21.66C21.4525 21.9471 21.3437 22.4705 21.34 23C21.3868 24.1018 21.8671 25.1404 22.6763 25.8896C23.4855 26.6388 24.5579 27.0379 25.66 27C26.7209 27 27.7383 26.5786 28.4884 25.8284C29.2386 25.0783 29.66 24.0609 29.66 23C29.66 21.9391 29.2386 20.9217 28.4884 20.1716C27.7383 19.4214 26.7209 19 25.66 19L25.7 18.96ZM27.46 5.99999L25.78 14H7L5.52 5.99999H27.46ZM6.74 24.54C6.30869 24.552 5.88893 24.3996 5.56582 24.1137C5.24272 23.8277 5.04044 23.4296 5 23C5.04073 22.5559 5.25434 22.1456 5.5948 21.8575C5.93525 21.5694 6.37527 21.4266 6.82 21.46C7.26261 21.4268 7.70036 21.5702 8.03762 21.8587C8.37488 22.1473 8.58425 22.5576 8.62 23C8.60276 23.2265 8.53977 23.4472 8.43483 23.6486C8.32988 23.8501 8.18517 24.0282 8.00943 24.1722C7.8337 24.3161 7.6306 24.4229 7.41241 24.4861C7.19422 24.5494 6.96547 24.5677 6.74 24.54ZM25.7 24.54C25.2553 24.5733 24.8152 24.4306 24.4748 24.1425C24.1343 23.8544 23.9207 23.4441 23.88 23C23.9574 22.5764 24.181 22.1934 24.5117 21.9177C24.8424 21.6419 25.2594 21.4909 25.69 21.4909C26.1206 21.4909 26.5376 21.6419 26.8683 21.9177C27.199 22.1934 27.4226 22.5764 27.5 23C27.4593 23.4404 27.2485 23.8476 26.9124 24.1351C26.5763 24.4227 26.1414 24.5679 25.7 24.54Z" fill="#555555"/>
</svg>
